<svg width="25" height="24" viewBox="0 0 25 24" fill="none" xmlns="http://www.w3.org/2000/svg">
<g id="eva:arrow-side-fill">
<path id="Vector" d="M8.0413 15.7517L8.0413 7.33169C8.04081 6.99928 8.13448 6.67353 8.31145 6.39214C8.48843 6.11075 8.74147 5.88524 9.0413 5.74169C9.39704 5.57366 9.79283 5.50894 10.1836 5.55491C10.5743 5.60088 10.9443 5.75569 11.2513 6.0017L16.3513 10.2117C16.5419 10.3769 16.6948 10.5812 16.7996 10.8106C16.9044 11.0401 16.9586 11.2894 16.9586 11.5417C16.9586 11.794 16.9044 12.0433 16.7996 12.2727C16.6948 12.5022 16.5419 12.7065 16.3513 12.8717L11.2513 17.0817C10.9443 17.3277 10.5743 17.4825 10.1836 17.5285C9.79283 17.5744 9.39704 17.5097 9.0413 17.3417C8.74147 17.1982 8.48843 16.9726 8.31145 16.6912C8.13448 16.4099 8.04081 16.0841 8.0413 15.7517Z" fill="#D3D3D3"/>
</g>
</svg>
