<svg width="96" height="96" viewBox="0 0 96 96" fill="none" xmlns="http://www.w3.org/2000/svg">
<g id="material-symbols:done-rounded">
<path id="Vector" d="M38.205 57.7666L25.4192 44.8908L25.4192 44.8907L25.4118 44.8834C24.2499 43.7253 22.7994 43.104 21.1568 43.1C19.5066 43.096 18.0507 43.7208 16.8858 44.8858C15.7354 46.0362 15.0962 47.4668 15.0488 49.0938C15.0003 50.7608 15.6093 52.2377 16.7858 53.4142L33.9858 70.6142C35.1356 71.764 36.5682 72.4 38.2 72.4C39.8318 72.4 41.2644 71.764 42.4142 70.6142L42.4161 70.6123L79.1118 33.8166C79.1128 33.8156 79.1137 33.8147 79.1147 33.8138C80.2786 32.6524 80.9 31.1986 80.9 29.552C80.9 27.9043 80.2778 26.4494 79.1142 25.2858C77.9644 24.136 76.5318 23.5 74.9 23.5C73.2682 23.5 71.8356 24.136 70.6858 25.2858L38.205 57.7666Z" fill="white" stroke="#5420A4" stroke-width="4"/>
</g>
</svg>
