<svg width="15" height="14" viewBox="0 0 15 14" fill="none" xmlns="http://www.w3.org/2000/svg">
<g id="Group 1">
<path id="Vector" d="M13.9059 1.30505L13.3172 0.716296C13.1508 0.549904 12.8436 0.575511 12.6516 0.805867L10.6035 2.84104C9.6818 2.44429 8.6707 2.25229 7.60825 2.25229C4.44655 2.26504 1.70753 4.10821 0.389037 6.75798C0.312215 6.92437 0.312215 7.12911 0.389037 7.2699C1.00338 8.52432 1.92504 9.56115 3.07704 10.3419L1.40025 12.0443C1.20825 12.2363 1.18264 12.5435 1.31068 12.7099L1.89943 13.2986C2.06583 13.465 2.37302 13.4394 2.56502 13.2091L13.8033 1.97074C14.0466 1.77885 14.0722 1.47168 13.9058 1.30527L13.9059 1.30505ZM8.28664 5.17056C8.06903 5.11934 7.83868 5.05538 7.62106 5.05538C6.53302 5.05538 5.66271 5.9258 5.66271 7.01373C5.66271 7.23133 5.71393 7.46169 5.77789 7.67931L4.9202 8.52414C4.66423 8.07617 4.52344 7.57689 4.52344 7.01375C4.52344 5.31137 5.89306 3.94175 7.59545 3.94175C8.15869 3.94175 8.65787 4.08254 9.10583 4.33851L8.28664 5.17056Z" fill="#666666" fill-opacity="0.8"/>
<path id="Vector_2" d="M14.8276 6.75792C14.3796 5.86188 13.7908 5.05554 13.0612 4.40271L10.6804 6.75792V7.01388C10.6804 8.71627 9.31078 10.0859 7.60839 10.0859H7.35243L5.84204 11.5963C6.40529 11.7114 6.99404 11.7883 7.57005 11.7883C10.7317 11.7883 13.4708 9.94509 14.7893 7.28257C14.9044 7.10332 14.9044 6.92419 14.8276 6.75778L14.8276 6.75792Z" fill="#666666" fill-opacity="0.8"/>
</g>
</svg>
