<svg width="24" height="25" viewBox="0 0 24 25" fill="none" xmlns="http://www.w3.org/2000/svg">
<g id="ic:outline-history">
<path id="Vector" d="M13 3.5C10.6131 3.5 8.32387 4.44821 6.63604 6.13604C4.94821 7.82387 4 10.1131 4 12.5H1L4.89 16.39L4.96 16.53L9 12.5H6C6 8.63 9.13 5.5 13 5.5C16.87 5.5 20 8.63 20 12.5C20 16.37 16.87 19.5 13 19.5C11.07 19.5 9.32 18.71 8.06 17.44L6.64 18.86C7.47328 19.6982 8.46433 20.363 9.55594 20.8162C10.6475 21.2693 11.8181 21.5017 13 21.5C15.3869 21.5 17.6761 20.5518 19.364 18.864C21.0518 17.1761 22 14.8869 22 12.5C22 10.1131 21.0518 7.82387 19.364 6.13604C17.6761 4.44821 15.3869 3.5 13 3.5ZM12 8.5V13.5L16.25 16.02L17.02 14.74L13.5 12.65V8.5H12Z" fill="#F5F2FA"/>
</g>
</svg>
