<svg width="26" height="27" viewBox="0 0 26 27" fill="none" xmlns="http://www.w3.org/2000/svg">
<g id="heroicons:cpu-chip-solid">
<g id="Group">
<path id="Vector" d="M17.875 8.625H8.125V18.375H17.875V8.625Z" fill="#E0E0E0"/>
<path id="Vector_2" fill-rule="evenodd" clip-rule="evenodd" d="M8.9375 2.9375C9.15299 2.9375 9.35965 3.0231 9.51202 3.17548C9.6644 3.32785 9.75 3.53451 9.75 3.75V4.5625H12.1875V3.75C12.1875 3.53451 12.2731 3.32785 12.4255 3.17548C12.5778 3.0231 12.7845 2.9375 13 2.9375C13.2155 2.9375 13.4222 3.0231 13.5745 3.17548C13.7269 3.32785 13.8125 3.53451 13.8125 3.75V4.5625H16.25V3.75C16.25 3.53451 16.3356 3.32785 16.488 3.17548C16.6404 3.0231 16.847 2.9375 17.0625 2.9375C17.278 2.9375 17.4847 3.0231 17.637 3.17548C17.7894 3.32785 17.875 3.53451 17.875 3.75V4.5625H18.6875C19.5495 4.5625 20.3761 4.90491 20.9856 5.5144C21.5951 6.1239 21.9375 6.95055 21.9375 7.8125V8.625H22.75C22.9655 8.625 23.1722 8.7106 23.3245 8.86298C23.4769 9.01535 23.5625 9.22201 23.5625 9.4375C23.5625 9.65299 23.4769 9.85965 23.3245 10.012C23.1722 10.1644 22.9655 10.25 22.75 10.25H21.9375V12.6875H22.75C22.9655 12.6875 23.1722 12.7731 23.3245 12.9255C23.4769 13.0778 23.5625 13.2845 23.5625 13.5C23.5625 13.7155 23.4769 13.9222 23.3245 14.0745C23.1722 14.2269 22.9655 14.3125 22.75 14.3125H21.9375V16.75H22.75C22.9655 16.75 23.1722 16.8356 23.3245 16.988C23.4769 17.1404 23.5625 17.347 23.5625 17.5625C23.5625 17.778 23.4769 17.9847 23.3245 18.137C23.1722 18.2894 22.9655 18.375 22.75 18.375H21.9375V19.1875C21.9375 20.0495 21.5951 20.8761 20.9856 21.4856C20.3761 22.0951 19.5495 22.4375 18.6875 22.4375H17.875V23.25C17.875 23.4655 17.7894 23.6722 17.637 23.8245C17.4847 23.9769 17.278 24.0625 17.0625 24.0625C16.847 24.0625 16.6404 23.9769 16.488 23.8245C16.3356 23.6722 16.25 23.4655 16.25 23.25V22.4375H13.8125V23.25C13.8125 23.4655 13.7269 23.6722 13.5745 23.8245C13.4222 23.9769 13.2155 24.0625 13 24.0625C12.7845 24.0625 12.5778 23.9769 12.4255 23.8245C12.2731 23.6722 12.1875 23.4655 12.1875 23.25V22.4375H9.75V23.25C9.75 23.4655 9.6644 23.6722 9.51202 23.8245C9.35965 23.9769 9.15299 24.0625 8.9375 24.0625C8.72201 24.0625 8.51535 23.9769 8.36298 23.8245C8.2106 23.6722 8.125 23.4655 8.125 23.25V22.4375H7.3125C6.45055 22.4375 5.6239 22.0951 5.0144 21.4856C4.40491 20.8761 4.0625 20.0495 4.0625 19.1875V18.375H3.25C3.03451 18.375 2.82785 18.2894 2.67548 18.137C2.5231 17.9847 2.4375 17.778 2.4375 17.5625C2.4375 17.347 2.5231 17.1404 2.67548 16.988C2.82785 16.8356 3.03451 16.75 3.25 16.75H4.0625V14.3125H3.25C3.03451 14.3125 2.82785 14.2269 2.67548 14.0745C2.5231 13.9222 2.4375 13.7155 2.4375 13.5C2.4375 13.2845 2.5231 13.0778 2.67548 12.9255C2.82785 12.7731 3.03451 12.6875 3.25 12.6875H4.0625V10.25H3.25C3.03451 10.25 2.82785 10.1644 2.67548 10.012C2.5231 9.85965 2.4375 9.65299 2.4375 9.4375C2.4375 9.22201 2.5231 9.01535 2.67548 8.86298C2.82785 8.7106 3.03451 8.625 3.25 8.625H4.0625V7.8125C4.0625 6.95055 4.40491 6.1239 5.0144 5.5144C5.6239 4.90491 6.45055 4.5625 7.3125 4.5625H8.125V3.75C8.125 3.53451 8.2106 3.32785 8.36298 3.17548C8.51535 3.0231 8.72201 2.9375 8.9375 2.9375ZM6.5 7.8125C6.5 7.59701 6.5856 7.39035 6.73798 7.23798C6.89035 7.0856 7.09701 7 7.3125 7H18.6875C18.903 7 19.1097 7.0856 19.262 7.23798C19.4144 7.39035 19.5 7.59701 19.5 7.8125V19.1875C19.5 19.403 19.4144 19.6097 19.262 19.762C19.1097 19.9144 18.903 20 18.6875 20H7.3125C7.09701 20 6.89035 19.9144 6.73798 19.762C6.5856 19.6097 6.5 19.403 6.5 19.1875V7.8125Z" fill="#E0E0E0"/>
</g>
</g>
</svg>
