<svg width="16" height="16" viewBox="0 0 16 16" fill="none" xmlns="http://www.w3.org/2000/svg">
<g id="ep:arrow-up-bold">
<path id="Vector" d="M10.7069 14.364C10.8944 14.1764 10.9997 13.9221 10.9997 13.657C10.9997 13.3918 10.8944 13.1375 10.7069 12.95L5.75693 7.99995L10.7069 3.04995C10.8891 2.86135 10.9899 2.60875 10.9876 2.34655C10.9853 2.08435 10.8802 1.83354 10.6947 1.64813C10.5093 1.46273 10.2585 1.35756 9.99633 1.35528C9.73413 1.353 9.48153 1.45379 9.29293 1.63595L3.63593 7.29295C3.44846 7.48048 3.34314 7.73479 3.34314 7.99995C3.34314 8.26512 3.44846 8.51942 3.63593 8.70695L9.29293 14.364C9.48045 14.5514 9.73476 14.6567 9.99993 14.6567C10.2651 14.6567 10.5194 14.5514 10.7069 14.364Z" fill="white"/>
</g>
</svg>
