<svg width="24" height="24" viewBox="0 0 24 24" fill="none" xmlns="http://www.w3.org/2000/svg">
<g id="mingcute:power-fill">
<g id="Group">
<path id="Vector" fill-rule="evenodd" clip-rule="evenodd" d="M13.0757 5.73254C13.0757 5.44728 12.9623 5.17371 12.7606 4.97201C12.5589 4.7703 12.2854 4.65698 12.0001 4.65698C11.7148 4.65698 11.4413 4.7703 11.2396 4.97201C11.0379 5.17371 10.9245 5.44728 10.9245 5.73254V12.9029C10.9245 13.1882 11.0379 13.4618 11.2396 13.6635C11.4413 13.8652 11.7148 13.9785 12.0001 13.9785C12.2854 13.9785 12.5589 13.8652 12.7606 13.6635C12.9623 13.4618 13.0757 13.1882 13.0757 12.9029V5.73254ZM9.02726 7.7044C9.14496 7.62619 9.24611 7.52557 9.32493 7.40828C9.40374 7.29099 9.45869 7.15932 9.48662 7.02079C9.51455 6.88227 9.51492 6.7396 9.48772 6.60093C9.46051 6.46226 9.40626 6.3303 9.32805 6.2126C9.24985 6.09489 9.14923 5.99375 9.03194 5.91493C8.91465 5.83611 8.78298 5.78117 8.64445 5.75324C8.50593 5.72531 8.36325 5.72493 8.22458 5.75214C8.08591 5.77934 7.95396 5.8336 7.83626 5.9118C6.80084 6.59835 5.9516 7.53068 5.3644 8.6255C4.7772 9.72032 4.47033 10.9435 4.47119 12.1859C4.47119 16.344 7.84199 19.7148 12.0001 19.7148C16.1582 19.7148 19.529 16.344 19.529 12.1859C19.529 9.56583 18.1903 7.25983 16.1639 5.9118C15.9262 5.75396 15.6356 5.69701 15.3559 5.75349C15.0762 5.80997 14.8303 5.97524 14.6725 6.21296C14.5147 6.45067 14.4577 6.74135 14.5142 7.02105C14.5707 7.30075 14.7359 7.54656 14.9737 7.7044C15.9363 8.34302 16.6678 9.27468 17.0597 10.3614C17.4516 11.4482 17.4831 12.6322 17.1496 13.7383C16.8161 14.8444 16.1353 15.8136 15.208 16.5026C14.2806 17.1916 13.1561 17.5636 12.0008 17.5636C10.8456 17.5636 9.72101 17.1916 8.79368 16.5026C7.86634 15.8136 7.18551 14.8444 6.852 13.7383C6.51849 12.6322 6.55002 11.4482 6.94193 10.3614C7.33384 9.27468 8.06457 8.34302 9.02726 7.7044Z" fill="#FF453A"/>
</g>
</g>
</svg>
