<svg width="24" height="25" viewBox="0 0 24 25" fill="none" xmlns="http://www.w3.org/2000/svg">
<g id="ion:body">
<path id="Vector" d="M12.0001 5.74988C13.4498 5.74988 14.6251 4.57463 14.6251 3.12488C14.6251 1.67513 13.4498 0.499878 12.0001 0.499878C10.5503 0.499878 9.37506 1.67513 9.37506 3.12488C9.37506 4.57463 10.5503 5.74988 12.0001 5.74988Z" fill="#E0E0E0"/>
<path id="Vector_2" d="M20.4844 6.49994H3.51569C3.18002 6.49994 2.8581 6.63328 2.62075 6.87063C2.3834 7.10798 2.25006 7.4299 2.25006 7.76557C2.25006 8.10123 2.3834 8.42315 2.62075 8.6605C2.8581 8.89785 3.18002 9.03119 3.51569 9.03119H8.29131C8.61522 9.03119 8.99444 9.17604 9.20912 9.73432C9.45991 10.3826 9.33709 11.6346 9.1824 12.6045L8.97991 13.7506C8.98028 13.7535 8.97997 13.7566 8.979 13.7594C8.97802 13.7623 8.97641 13.7648 8.97428 13.767L7.35241 22.9924C7.29359 23.3273 7.36981 23.6719 7.56439 23.9507C7.75897 24.2295 8.05607 24.4199 8.39069 24.4803C8.55612 24.5095 8.72572 24.5056 8.88963 24.4688C9.05355 24.432 9.20851 24.363 9.34553 24.2657C9.48256 24.1685 9.5989 24.0451 9.68782 23.9025C9.77674 23.76 9.83645 23.6012 9.8635 23.4354L10.9843 17.0229C10.9843 17.0229 11.3438 15.4999 12.0001 15.4999C12.6671 15.4999 13.0191 17.0229 13.0191 17.0229L14.1399 23.441C14.167 23.6083 14.2271 23.7685 14.3168 23.9123C14.4065 24.0561 14.5238 24.1806 14.6621 24.2786C14.8003 24.3765 14.9567 24.446 15.1221 24.4829C15.2875 24.5199 15.4586 24.5235 15.6254 24.4936C15.7922 24.4638 15.9514 24.401 16.0936 24.309C16.2359 24.217 16.3585 24.0976 16.4542 23.9577C16.5499 23.8179 16.6167 23.6604 16.6509 23.4944C16.6851 23.3284 16.686 23.1573 16.6533 22.991L15.031 13.7656C15.0313 13.7626 15.0311 13.7596 15.0302 13.7568C15.0293 13.754 15.0278 13.7514 15.0258 13.7492L14.8229 12.6031C14.6682 11.6332 14.5454 10.3812 14.7962 9.73291C15.0099 9.17604 15.4013 9.02979 15.6999 9.02979H20.4844C20.8201 9.02979 21.142 8.89644 21.3794 8.65909C21.6167 8.42174 21.7501 8.09982 21.7501 7.76416C21.7501 7.4285 21.6167 7.10658 21.3794 6.86923C21.142 6.63188 20.8201 6.49854 20.4844 6.49854V6.49994Z" fill="#E0E0E0"/>
</g>
</svg>
