<svg width="16" height="15" viewBox="0 0 16 15" fill="none" xmlns="http://www.w3.org/2000/svg">
<g id="cuida:open-in-new-tab-outline">
<g id="Group">
<g id="Group_2">
<path id="Vector" fill-rule="evenodd" clip-rule="evenodd" d="M4.07657 2.55902C3.91276 2.55902 3.75566 2.6241 3.63983 2.73993C3.524 2.85576 3.45893 3.01286 3.45893 3.17667V11.8237C3.45893 11.9875 3.524 12.1446 3.63983 12.2605C3.75566 12.3763 3.91276 12.4414 4.07657 12.4414H12.7236C12.8874 12.4414 13.0445 12.3763 13.1604 12.2605C13.2762 12.1446 13.3413 11.9875 13.3413 11.8237V8.57305C13.3413 8.40924 13.4064 8.25214 13.5222 8.13631C13.638 8.02048 13.7951 7.95541 13.9589 7.95541C14.1227 7.95541 14.2798 8.02048 14.3957 8.13631C14.5115 8.25214 14.5766 8.40924 14.5766 8.57305V11.8237C14.5766 12.3152 14.3814 12.7865 14.0339 13.134C13.6864 13.4815 13.2151 13.6767 12.7236 13.6767H4.07657C3.58514 13.6767 3.11384 13.4815 2.76635 13.134C2.41885 12.7865 2.22363 12.3152 2.22363 11.8237V3.17667C2.22363 2.68524 2.41885 2.21394 2.76635 1.86644C3.11384 1.51895 3.58514 1.32373 4.07657 1.32373H7.17531C7.33912 1.32373 7.49622 1.3888 7.61205 1.50464C7.72788 1.62047 7.79296 1.77757 7.79296 1.94138C7.79296 2.10519 7.72788 2.26229 7.61205 2.37812C7.49622 2.49395 7.33912 2.55902 7.17531 2.55902H4.07657Z" fill="white"/>
<path id="Vector_2" fill-rule="evenodd" clip-rule="evenodd" d="M14.2127 1.67689C14.3239 1.78839 14.3864 1.93942 14.3864 2.09689C14.3864 2.25435 14.3239 2.40539 14.2127 2.51689L8.79474 7.94353C8.73968 7.99863 8.6743 8.04233 8.60234 8.07215C8.53038 8.10196 8.45325 8.11731 8.37536 8.11731C8.29747 8.11731 8.22034 8.10196 8.14838 8.07215C8.07642 8.04233 8.01104 7.99863 7.95598 7.94353C7.84479 7.83204 7.78235 7.681 7.78235 7.52353C7.78235 7.36607 7.84479 7.21503 7.95598 7.10353L13.3746 1.67689C13.4858 1.56581 13.6365 1.50342 13.7937 1.50342C13.9508 1.50342 14.1016 1.56581 14.2127 1.67689Z" fill="white"/>
<path id="Vector_3" fill-rule="evenodd" clip-rule="evenodd" d="M13.9836 1.32373C14.311 1.32373 14.5766 1.58932 14.5766 1.91791V5.02961C14.5766 5.35758 14.2863 5.64726 13.9589 5.64726C13.6316 5.64726 13.3413 5.35758 13.3413 5.02961V2.55902H10.8707C10.5433 2.55902 10.2531 2.26935 10.2531 1.94138C10.2531 1.61341 10.5186 1.32373 10.846 1.32373H13.9836Z" fill="white"/>
</g>
</g>
</g>
</svg>
