<svg width="16" height="15" viewBox="0 0 16 15" fill="none" xmlns="http://www.w3.org/2000/svg">
<g id="fa6-regular:file-pdf" clip-path="url(#clip0_943_492)">
<path id="Vector" d="M2.35294 13.5222H3.74265V14.9119H2.35294C1.33093 14.9119 0.5 14.081 0.5 13.059V1.94132C0.5 0.919307 1.33093 0.0883789 2.35294 0.0883789H7.14453C7.63672 0.0883789 8.10864 0.282359 8.45607 0.629785L11.0762 3.24996C11.4237 3.59739 11.6176 4.06931 11.6176 4.56149V8.88985H10.2279V4.72073H7.91176C7.39931 4.72073 6.98529 4.30672 6.98529 3.79426V1.47808H2.35294C2.09816 1.47808 1.88971 1.68654 1.88971 1.94132V13.059C1.88971 13.3137 2.09816 13.5222 2.35294 13.5222ZM5.59559 10.2796H6.52206C7.41668 10.2796 8.14338 11.0063 8.14338 11.9009C8.14338 12.7955 7.41668 13.5222 6.52206 13.5222H6.05882V14.4487C6.05882 14.7035 5.85037 14.9119 5.59559 14.9119C5.34081 14.9119 5.13235 14.7035 5.13235 14.4487V10.7428C5.13235 10.488 5.34081 10.2796 5.59559 10.2796ZM6.52206 12.5957C6.90712 12.5957 7.21691 12.2859 7.21691 11.9009C7.21691 11.5158 6.90712 11.206 6.52206 11.206H6.05882V12.5957H6.52206ZM9.30147 10.2796H10.2279C10.9952 10.2796 11.6176 10.902 11.6176 11.6693V13.5222C11.6176 14.2894 10.9952 14.9119 10.2279 14.9119H9.30147C9.04669 14.9119 8.83823 14.7035 8.83823 14.4487V10.7428C8.83823 10.488 9.04669 10.2796 9.30147 10.2796ZM10.2279 13.9854C10.4827 13.9854 10.6912 13.777 10.6912 13.5222V11.6693C10.6912 11.4145 10.4827 11.206 10.2279 11.206H9.76471V13.9854H10.2279ZM12.5441 10.7428C12.5441 10.488 12.7526 10.2796 13.0074 10.2796H14.3971C14.6518 10.2796 14.8603 10.488 14.8603 10.7428C14.8603 10.9976 14.6518 11.206 14.3971 11.206H13.4706V12.1325H14.3971C14.6518 12.1325 14.8603 12.341 14.8603 12.5957C14.8603 12.8505 14.6518 13.059 14.3971 13.059H13.4706V14.4487C13.4706 14.7035 13.2621 14.9119 13.0074 14.9119C12.7526 14.9119 12.5441 14.7035 12.5441 14.4487V10.7428Z" fill="white"/>
</g>
<defs>
<clipPath id="clip0_943_492">
<rect width="14.8235" height="14.8235" fill="white" transform="translate(0.5 0.0883789)"/>
</clipPath>
</defs>
</svg>
