<svg width="33" height="32" viewBox="0 0 33 32" fill="none" xmlns="http://www.w3.org/2000/svg">
<g id="ic:round-plus">
<path id="Vector" d="M24.5 17.3307H17.8333V23.9974C17.8333 24.351 17.6928 24.6902 17.4428 24.9402C17.1927 25.1903 16.8536 25.3307 16.5 25.3307C16.1464 25.3307 15.8072 25.1903 15.5572 24.9402C15.3071 24.6902 15.1667 24.351 15.1667 23.9974V17.3307H8.49999C8.14637 17.3307 7.80723 17.1903 7.55718 16.9402C7.30713 16.6902 7.16666 16.351 7.16666 15.9974C7.16666 15.6438 7.30713 15.3046 7.55718 15.0546C7.80723 14.8045 8.14637 14.6641 8.49999 14.6641H15.1667V7.9974C15.1667 7.64377 15.3071 7.30463 15.5572 7.05459C15.8072 6.80454 16.1464 6.66406 16.5 6.66406C16.8536 6.66406 17.1927 6.80454 17.4428 7.05459C17.6928 7.30463 17.8333 7.64377 17.8333 7.9974V14.6641H24.5C24.8536 14.6641 25.1928 14.8045 25.4428 15.0546C25.6928 15.3046 25.8333 15.6438 25.8333 15.9974C25.8333 16.351 25.6928 16.6902 25.4428 16.9402C25.1928 17.1903 24.8536 17.3307 24.5 17.3307Z" fill="#F5F2FA"/>
</g>
</svg>
