<svg width="17" height="17" viewBox="0 0 17 17" fill="none" xmlns="http://www.w3.org/2000/svg">
<g id="material-symbols:print-rounded">
<path id="Vector" d="M5.74487 14.5C5.37821 14.5 5.06443 14.3696 4.80354 14.1087C4.54265 13.8478 4.41198 13.5338 4.41154 13.1667V11.8333H3.07821C2.71154 11.8333 2.39776 11.7029 2.13687 11.442C1.87598 11.1811 1.74532 10.8671 1.74487 10.5V7.83333C1.74487 7.26667 1.93932 6.79178 2.32821 6.40867C2.7171 6.02556 3.18932 5.83378 3.74487 5.83333H13.0782C13.6449 5.83333 14.12 6.02511 14.5035 6.40867C14.8871 6.79222 15.0787 7.26711 15.0782 7.83333V10.5C15.0782 10.8667 14.9478 11.1807 14.6869 11.442C14.426 11.7033 14.112 11.8338 13.7449 11.8333H12.4115V13.1667C12.4115 13.5333 12.2811 13.8473 12.0202 14.1087C11.7593 14.37 11.4453 14.5004 11.0782 14.5H5.74487ZM12.4115 5.16667H4.41154V3.83333C4.41154 3.46667 4.54221 3.15289 4.80354 2.892C5.06487 2.63111 5.37865 2.50044 5.74487 2.5H11.0782C11.4449 2.5 11.7589 2.63067 12.0202 2.892C12.2815 3.15333 12.412 3.46711 12.4115 3.83333V5.16667ZM12.4115 8.83333C12.6004 8.83333 12.7589 8.76933 12.8869 8.64133C13.0149 8.51333 13.0787 8.35511 13.0782 8.16667C13.0778 7.97822 13.0138 7.82 12.8862 7.692C12.7587 7.564 12.6004 7.5 12.4115 7.5C12.2227 7.5 12.0644 7.564 11.9369 7.692C11.8093 7.82 11.7453 7.97822 11.7449 8.16667C11.7444 8.35511 11.8084 8.51356 11.9369 8.642C12.0653 8.77044 12.2235 8.83422 12.4115 8.83333ZM5.74487 13.1667H11.0782V10.5H5.74487V13.1667Z" fill="#F5F2FA"/>
</g>
</svg>
