<svg width="24" height="24" viewBox="0 0 24 24" fill="none" xmlns="http://www.w3.org/2000/svg">
<g id="iconamoon:profile-circle-fill">
<path id="Vector" fill-rule="evenodd" clip-rule="evenodd" d="M12 5.6C10.8806 5.59979 9.78075 5.89319 8.81018 6.4509C7.83961 7.00861 7.0323 7.81113 6.46882 8.77836C5.90534 9.74559 5.6054 10.8437 5.59894 11.9631C5.59248 13.0824 5.87973 14.1839 6.43201 15.1576C6.8053 14.6725 7.28515 14.2797 7.83448 14.0096C8.3838 13.7395 8.98788 13.5994 9.60001 13.6H14.4C15.0121 13.5994 15.6162 13.7395 16.1655 14.0096C16.7149 14.2797 17.1947 14.6725 17.568 15.1576C18.1203 14.1839 18.4075 13.0824 18.4011 11.9631C18.3946 10.8437 18.0947 9.74559 17.5312 8.77836C16.9677 7.81113 16.1604 7.00861 15.1898 6.4509C14.2193 5.89319 13.1194 5.59979 12 5.6ZM18.3544 16.8608C18.4547 16.7301 18.5507 16.5963 18.6424 16.4592C19.5293 15.1414 20.0021 13.5885 20 12C20 7.5816 16.4184 4 12 4C7.58161 4 4.00001 7.5816 4.00001 12C3.99749 13.7574 4.57604 15.4663 5.64561 16.8608L5.64161 16.8752L5.92561 17.2056C6.67592 18.0828 7.60752 18.7869 8.65619 19.2693C9.70487 19.7517 10.8457 20.001 12 20C12.1728 20 12.3445 19.9947 12.5152 19.984C13.9587 19.893 15.3502 19.4104 16.54 18.588C17.1091 18.1954 17.6248 17.7308 18.0744 17.2056L18.3584 16.8752L18.3544 16.8608ZM12 7.2C11.3635 7.2 10.753 7.45286 10.303 7.90294C9.85286 8.35303 9.60001 8.96348 9.60001 9.6C9.60001 10.2365 9.85286 10.847 10.303 11.2971C10.753 11.7471 11.3635 12 12 12C12.6365 12 13.247 11.7471 13.6971 11.2971C14.1472 10.847 14.4 10.2365 14.4 9.6C14.4 8.96348 14.1472 8.35303 13.6971 7.90294C13.247 7.45286 12.6365 7.2 12 7.2Z" fill="#F5F2FA"/>
</g>
</svg>
