<svg width="16" height="16" viewBox="0 0 16 16" fill="none" xmlns="http://www.w3.org/2000/svg">
<g id="ep:arrow-up-bold">
<path id="Vector" d="M5.29307 1.63605C5.1056 1.82358 5.00029 2.07788 5.00029 2.34305C5.00029 2.60821 5.1056 2.86252 5.29307 3.05005L10.2431 8.00005L5.29307 12.95C5.11092 13.1387 5.01012 13.3913 5.0124 13.6534C5.01468 13.9156 5.11985 14.1665 5.30525 14.3519C5.49066 14.5373 5.74148 14.6424 6.00367 14.6447C6.26587 14.647 6.51847 14.5462 6.70707 14.364L12.3641 8.70705C12.5515 8.51952 12.6569 8.26521 12.6569 8.00005C12.6569 7.73488 12.5515 7.48058 12.3641 7.29305L6.70707 1.63605C6.51955 1.44858 6.26524 1.34326 6.00007 1.34326C5.73491 1.34326 5.4806 1.44858 5.29307 1.63605Z" fill="white"/>
</g>
</svg>
