<svg width="24" height="24" viewBox="0 0 24 24" fill="none" xmlns="http://www.w3.org/2000/svg">
<g id="ic:baseline-settings">
<path id="Vector" d="M17.95 12.7833C17.9833 12.5333 18 12.275 18 12C18 11.7333 17.9833 11.4667 17.9416 11.2167L19.6333 9.9C19.7062 9.83992 19.756 9.75641 19.7742 9.66372C19.7925 9.57103 19.778 9.47489 19.7333 9.39167L18.1333 6.625C18.0859 6.54155 18.0107 6.47743 17.9208 6.44391C17.8309 6.41038 17.7321 6.40959 17.6416 6.44167L15.65 7.24167C15.2333 6.925 14.7916 6.65834 14.3 6.45834L14 4.34167C13.9852 4.24628 13.9367 4.15934 13.8633 4.09665C13.7899 4.03396 13.6965 3.99967 13.6 4H10.4C10.2 4 10.0416 4.14167 10.0083 4.34167L9.7083 6.45834C9.21664 6.65834 8.76664 6.93334 8.3583 7.24167L6.36664 6.44167C6.1833 6.375 5.97497 6.44167 5.87497 6.625L4.2833 9.39167C4.1833 9.56667 4.21664 9.78333 4.3833 9.9L6.07497 11.2167C6.0333 11.4667 5.99997 11.7417 5.99997 12C5.99997 12.2583 6.01664 12.5333 6.0583 12.7833L4.36664 14.1C4.29374 14.1601 4.24393 14.2436 4.2257 14.3363C4.20746 14.429 4.22193 14.5251 4.26664 14.6083L5.86664 17.375C5.96664 17.5583 6.17497 17.6167 6.3583 17.5583L8.34997 16.7583C8.76664 17.075 9.2083 17.3417 9.69997 17.5417L9.99997 19.6583C10.0416 19.8583 10.2 20 10.4 20H13.6C13.8 20 13.9666 19.8583 13.9916 19.6583L14.2916 17.5417C14.7833 17.3417 15.2333 17.075 15.6416 16.7583L17.6333 17.5583C17.8166 17.625 18.025 17.5583 18.125 17.375L19.725 14.6083C19.825 14.425 19.7833 14.2167 19.625 14.1L17.95 12.7833ZM12 15C10.35 15 8.99997 13.65 8.99997 12C8.99997 10.35 10.35 9 12 9C13.65 9 15 10.35 15 12C15 13.65 13.65 15 12 15Z" fill="#F5F2FA"/>
</g>
</svg>
