<svg width="24" height="24" viewBox="0 0 24 24" fill="none" xmlns="http://www.w3.org/2000/svg">
<g id="ion:navigate">
<path id="Vector" d="M12.7497 21.75C12.6495 21.75 12.5504 21.73 12.4581 21.6911C12.3658 21.6522 12.2822 21.5952 12.2123 21.5234C12.1424 21.4517 12.0876 21.3667 12.051 21.2734C12.0145 21.1801 11.9971 21.0805 11.9997 20.9803V12.3811C11.9997 12.2816 11.9602 12.1863 11.8899 12.1159C11.8195 12.0456 11.7242 12.0061 11.6247 12.0061H3.01892C2.86118 12.008 2.70672 11.961 2.57672 11.8716C2.44673 11.7822 2.34756 11.6548 2.29283 11.5069C2.2305 11.3304 2.23638 11.1371 2.30932 10.9647C2.38226 10.7924 2.51699 10.6536 2.68705 10.5755L20.687 2.31844C20.8261 2.25472 20.9813 2.23505 21.1319 2.26206C21.2825 2.28908 21.4212 2.36148 21.5294 2.46957C21.6377 2.57766 21.7103 2.71626 21.7375 2.86679C21.7647 3.01731 21.7453 3.17257 21.6817 3.31172L13.4317 21.3117C13.372 21.4424 13.276 21.5533 13.155 21.631C13.0341 21.7087 12.8934 21.75 12.7497 21.75Z" fill="white"/>
</g>
</svg>
